 <svg
      xmlns="http://www.w3.org/2000/svg"
      width="2000"
      height="1500"
      fillRule="evenodd"
      clipRule="evenodd"
      imageRendering="optimizeQuality"
      shapeRendering="geometricPrecision"
      textRendering="geometricPrecision"
    >
      <path fill="#4b91f1" d="M-.5-.5h2000v1500H-.5V-.5z"></path>
      <path
        fill="#76d3fb"
        d="M969.5 249.5c103.63-5.835 201.29 15.331 293 63.5 127.15 72.205 207.65 179.705 241.5 322.5 17.99 88.408 14.99 176.075-9 263-53.89 164.89-163.39 274.06-328.5 327.5-87.76 25.13-176.761 30.46-267 16-116.224-20.68-214.391-73.85-294.5-159.5-82.908-96.353-123.742-208.52-122.5-336.5.631-138.861 49.631-257.194 147-355 95.971-88.131 209.304-135.298 340-141.5z"
      ></path>
      <path
        fill="#4b91f1"
        d="M965.5 342.5c71.94-4.643 141.27 6.523 208 33.5 109.29 48.96 182.45 130.46 219.5 244.5 23.96 83.089 24.62 166.422 2 250-36.32 118.648-111.15 203.15-224.5 253.5-82.49 32.42-167.49 41.09-255 26-107.817-20.92-193.984-75.42-258.5-163.5-54.675-82.302-78.342-172.969-71-272 10.187-118.569 61.354-214.735 153.5-288.5 67.11-49.872 142.443-77.706 226-83.5z"
      ></path>
    </svg>